<svg width="46" height="46" viewBox="0 0 46 46" fill="none" xmlns="http://www.w3.org/2000/svg">
<g filter="url(#filter0_d_102_1190)">
<path d="M1 22C1 9.84974 10.8497 0 23 0C35.1503 0 45 9.84974 45 22C45 34.1503 35.1503 44 23 44C10.8497 44 1 34.1503 1 22Z" fill="white"/>
<path fill-rule="evenodd" clip-rule="evenodd" d="M21.781 23.0239C23.5324 24.425 25.6768 26.5583 27.1182 29.4411L24.8821 30.5591C23.6567 28.1083 21.8012 26.2417 20.2193 24.9761C19.4327 24.3469 18.726 23.876 18.22 23.5646C17.9674 23.4092 17.7658 23.2941 17.6307 23.2196C17.5631 23.1823 17.5123 23.1552 17.48 23.1383L17.4459 23.1206L17.4411 23.1181L17.4405 23.1178C17.4406 23.1178 17.4406 23.1179 17.4411 23.1169L17.4411 20.8833C17.4406 20.8823 17.4405 20.8823 17.4405 20.8823L17.4411 20.8821L17.4458 20.8796L17.48 20.8619C17.5122 20.845 17.5631 20.8179 17.6307 20.7806C17.7658 20.706 17.9674 20.591 18.22 20.4355C18.726 20.1241 19.4327 19.6532 20.2192 19.024C21.8012 17.7584 23.6567 15.8917 24.8821 13.4409L27.1182 14.5589C25.6768 17.4417 23.5324 19.575 21.781 20.9761C21.285 21.373 20.8166 21.7142 20.3988 22.0001C20.8165 22.2859 21.285 22.6271 21.781 23.0239Z" fill="black"/>
</g>
<defs>
<filter id="filter0_d_102_1190" x="0" y="0" width="46" height="46" filterUnits="userSpaceOnUse" color-interpolation-filters="sRGB">
<feFlood flood-opacity="0" result="BackgroundImageFix"/>
<feColorMatrix in="SourceAlpha" type="matrix" values="0 0 0 0 0 0 0 0 0 0 0 0 0 0 0 0 0 0 127 0" result="hardAlpha"/>
<feOffset dy="1"/>
<feGaussianBlur stdDeviation="0.5"/>
<feColorMatrix type="matrix" values="0 0 0 0 0 0 0 0 0 0.0556863 0 0 0 0 0.2 0 0 0 0.05 0"/>
<feBlend mode="normal" in2="BackgroundImageFix" result="effect1_dropShadow_102_1190"/>
<feBlend mode="normal" in="SourceGraphic" in2="effect1_dropShadow_102_1190" result="shape"/>
</filter>
</defs>
</svg>
 